<mxfile host="65bd71144e">
    <diagram id="JAw7IhU1PAZ10MtZ-DYA" name="Page-1">
        <mxGraphModel dx="2112" dy="3444" grid="1" gridSize="10" guides="1" tooltips="1" connect="1" arrows="1" fold="1" page="1" pageScale="1" pageWidth="1920" pageHeight="1200" math="0" shadow="0">
            <root>
                <mxCell id="0"/>
                <mxCell id="1" parent="0"/>
                <mxCell id="22" value="" style="edgeStyle=none;html=1;fontSize=20;strokeWidth=4;" edge="1" parent="1" source="2" target="21">
                    <mxGeometry relative="1" as="geometry"/>
                </mxCell>
                <mxCell id="2" value="&lt;span style=&quot;font-size: 20px&quot;&gt;Convert data type&lt;/span&gt;&lt;br style=&quot;font-size: 20px&quot;&gt;&lt;span style=&quot;font-size: 20px&quot;&gt;to mesh&lt;/span&gt;" style="rounded=0;whiteSpace=wrap;html=1;" vertex="1" parent="1">
                    <mxGeometry x="760" y="80" width="280" height="120" as="geometry"/>
                </mxCell>
                <mxCell id="16" value="" style="endArrow=none;dashed=1;html=1;dashPattern=1 3;strokeWidth=2;fontSize=20;" edge="1" parent="1">
                    <mxGeometry width="50" height="50" relative="1" as="geometry">
                        <mxPoint x="520" y="560" as="sourcePoint"/>
                        <mxPoint x="720" y="560" as="targetPoint"/>
                    </mxGeometry>
                </mxCell>
                <mxCell id="20" value="" style="edgeStyle=none;html=1;fontSize=20;strokeWidth=4;" edge="1" parent="1" source="19" target="2">
                    <mxGeometry relative="1" as="geometry"/>
                </mxCell>
                <mxCell id="19" value="&lt;b style=&quot;font-size: 21px&quot;&gt;Discretized Blocks&lt;/b&gt;&lt;br style=&quot;font-size: 21px&quot;&gt;&lt;i style=&quot;font-size: 21px&quot;&gt;.json&lt;/i&gt;" style="shape=parallelogram;perimeter=parallelogramPerimeter;whiteSpace=wrap;html=1;fixedSize=1;fontSize=12;rounded=0;" vertex="1" parent="1">
                    <mxGeometry x="760" y="-80" width="280" height="120" as="geometry"/>
                </mxCell>
                <mxCell id="24" value="" style="edgeStyle=none;html=1;fontSize=20;strokeWidth=4;" edge="1" parent="1" source="21" target="23">
                    <mxGeometry relative="1" as="geometry"/>
                </mxCell>
                <mxCell id="21" value="&lt;b style=&quot;font-size: 21px&quot;&gt;Discretized Blocks&lt;/b&gt;&lt;br style=&quot;font-size: 21px&quot;&gt;&lt;i style=&quot;font-size: 21px&quot;&gt;mesh&lt;/i&gt;" style="shape=parallelogram;perimeter=parallelogramPerimeter;whiteSpace=wrap;html=1;fixedSize=1;fontSize=12;rounded=0;" vertex="1" parent="1">
                    <mxGeometry x="760" y="240" width="280" height="120" as="geometry"/>
                </mxCell>
                <mxCell id="27" value="" style="edgeStyle=none;html=1;fontSize=20;strokeWidth=4;" edge="1" parent="1" source="23" target="25">
                    <mxGeometry relative="1" as="geometry"/>
                </mxCell>
                <mxCell id="23" value="&lt;span style=&quot;font-size: 20px&quot;&gt;Re-orient the block&lt;/span&gt;&lt;br style=&quot;font-size: 20px&quot;&gt;&lt;span style=&quot;font-size: 20px&quot;&gt;so the flat face is&lt;/span&gt;&lt;br style=&quot;font-size: 20px&quot;&gt;&lt;span style=&quot;font-size: 20px&quot;&gt;facing downwards&lt;/span&gt;" style="rounded=0;whiteSpace=wrap;html=1;" vertex="1" parent="1">
                    <mxGeometry x="760" y="400" width="280" height="120" as="geometry"/>
                </mxCell>
                <mxCell id="28" value="" style="edgeStyle=none;html=1;fontSize=20;strokeWidth=4;" edge="1" parent="1" source="25" target="26">
                    <mxGeometry relative="1" as="geometry"/>
                </mxCell>
                <mxCell id="39" style="edgeStyle=orthogonalEdgeStyle;html=1;entryX=0.5;entryY=0;entryDx=0;entryDy=0;fontSize=20;strokeWidth=4;" edge="1" parent="1" source="25" target="37">
                    <mxGeometry relative="1" as="geometry"/>
                </mxCell>
                <mxCell id="25" value="&lt;b style=&quot;font-size: 21px&quot;&gt;Aligned Block&lt;/b&gt;&lt;br style=&quot;font-size: 21px&quot;&gt;&lt;i style=&quot;font-size: 21px&quot;&gt;mesh&lt;/i&gt;" style="shape=parallelogram;perimeter=parallelogramPerimeter;whiteSpace=wrap;html=1;fixedSize=1;fontSize=12;rounded=0;" vertex="1" parent="1">
                    <mxGeometry x="760" y="560" width="280" height="120" as="geometry"/>
                </mxCell>
                <mxCell id="30" value="" style="edgeStyle=none;html=1;fontSize=20;strokeWidth=4;" edge="1" parent="1" source="26" target="29">
                    <mxGeometry relative="1" as="geometry"/>
                </mxCell>
                <mxCell id="26" value="&lt;span style=&quot;font-size: 20px&quot;&gt;Generate blank material&lt;/span&gt;&lt;br style=&quot;font-size: 20px&quot;&gt;&lt;span style=&quot;font-size: 20px&quot;&gt;block is to be cut from&lt;/span&gt;" style="rounded=0;whiteSpace=wrap;html=1;" vertex="1" parent="1">
                    <mxGeometry x="1080" y="560" width="280" height="120" as="geometry"/>
                </mxCell>
                <mxCell id="40" style="edgeStyle=orthogonalEdgeStyle;html=1;entryX=0.5;entryY=0;entryDx=0;entryDy=0;fontSize=20;strokeWidth=4;" edge="1" parent="1" source="29" target="37">
                    <mxGeometry relative="1" as="geometry">
                        <Array as="points">
                            <mxPoint x="1220" y="880"/>
                            <mxPoint x="900" y="880"/>
                        </Array>
                    </mxGeometry>
                </mxCell>
                <mxCell id="29" value="&lt;b style=&quot;font-size: 21px&quot;&gt;Blank Material&lt;/b&gt;&lt;br style=&quot;font-size: 21px&quot;&gt;&lt;i style=&quot;font-size: 21px&quot;&gt;mesh&lt;/i&gt;" style="shape=parallelogram;perimeter=parallelogramPerimeter;whiteSpace=wrap;html=1;fixedSize=1;fontSize=12;rounded=0;" vertex="1" parent="1">
                    <mxGeometry x="1080" y="720" width="280" height="120" as="geometry"/>
                </mxCell>
                <mxCell id="34" style="edgeStyle=none;html=1;fontSize=20;strokeWidth=4;" edge="1" parent="1" source="31" target="32">
                    <mxGeometry relative="1" as="geometry"/>
                </mxCell>
                <mxCell id="31" value="&lt;b style=&quot;font-size: 21px&quot;&gt;Dimensions of &lt;br&gt;Machine Bed&lt;/b&gt;&lt;br style=&quot;font-size: 21px&quot;&gt;&lt;span style=&quot;font-size: 21px&quot;&gt;&lt;i&gt;[x,y]&lt;/i&gt;&lt;/span&gt;" style="shape=parallelogram;perimeter=parallelogramPerimeter;whiteSpace=wrap;html=1;fixedSize=1;fontSize=12;rounded=0;" vertex="1" parent="1">
                    <mxGeometry x="450" y="-80" width="280" height="120" as="geometry"/>
                </mxCell>
                <mxCell id="36" value="" style="edgeStyle=none;html=1;fontSize=20;strokeWidth=4;" edge="1" parent="1" source="32" target="35">
                    <mxGeometry relative="1" as="geometry"/>
                </mxCell>
                <mxCell id="32" value="&lt;span style=&quot;font-size: 20px&quot;&gt;Generate the table of the machine as a surface&lt;/span&gt;" style="rounded=0;whiteSpace=wrap;html=1;" vertex="1" parent="1">
                    <mxGeometry x="450" y="400" width="280" height="120" as="geometry"/>
                </mxCell>
                <mxCell id="38" style="edgeStyle=orthogonalEdgeStyle;html=1;entryX=0.5;entryY=0;entryDx=0;entryDy=0;fontSize=20;strokeWidth=4;" edge="1" parent="1" source="35" target="37">
                    <mxGeometry relative="1" as="geometry">
                        <Array as="points">
                            <mxPoint x="590" y="880"/>
                            <mxPoint x="900" y="880"/>
                        </Array>
                    </mxGeometry>
                </mxCell>
                <mxCell id="35" value="&lt;b style=&quot;font-size: 21px&quot;&gt;Machine Table&lt;/b&gt;&lt;br style=&quot;font-size: 21px&quot;&gt;&lt;i style=&quot;font-size: 21px&quot;&gt;srf&lt;/i&gt;" style="shape=parallelogram;perimeter=parallelogramPerimeter;whiteSpace=wrap;html=1;fixedSize=1;fontSize=12;rounded=0;" vertex="1" parent="1">
                    <mxGeometry x="450" y="560" width="280" height="120" as="geometry"/>
                </mxCell>
                <mxCell id="44" value="" style="edgeStyle=orthogonalEdgeStyle;html=1;fontSize=20;strokeWidth=4;" edge="1" parent="1" source="37" target="41">
                    <mxGeometry relative="1" as="geometry"/>
                </mxCell>
                <mxCell id="37" value="&lt;span style=&quot;font-size: 20px&quot;&gt;Orient block with &lt;br&gt;blank material on the &lt;br&gt;machine bed&lt;/span&gt;" style="rounded=0;whiteSpace=wrap;html=1;" vertex="1" parent="1">
                    <mxGeometry x="760" y="920" width="280" height="120" as="geometry"/>
                </mxCell>
                <mxCell id="47" value="" style="edgeStyle=orthogonalEdgeStyle;html=1;fontSize=20;strokeWidth=4;" edge="1" parent="1" source="41" target="45">
                    <mxGeometry relative="1" as="geometry"/>
                </mxCell>
                <mxCell id="41" value="&lt;span style=&quot;font-size: 20px&quot;&gt;Find edges wire will &lt;br&gt;follow and prep for path generation&lt;/span&gt;" style="rounded=0;whiteSpace=wrap;html=1;" vertex="1" parent="1">
                    <mxGeometry x="760" y="1080" width="280" height="120" as="geometry"/>
                </mxCell>
                <mxCell id="48" value="" style="edgeStyle=orthogonalEdgeStyle;html=1;fontSize=20;strokeWidth=4;" edge="1" parent="1" source="45" target="46">
                    <mxGeometry relative="1" as="geometry"/>
                </mxCell>
                <mxCell id="45" value="&lt;span style=&quot;font-size: 20px&quot;&gt;Generate Wirepath&lt;/span&gt;" style="rounded=0;whiteSpace=wrap;html=1;" vertex="1" parent="1">
                    <mxGeometry x="760" y="1240" width="280" height="120" as="geometry"/>
                </mxCell>
                <mxCell id="46" value="&lt;span style=&quot;font-size: 21px&quot;&gt;&lt;b&gt;Dataset for Machining&lt;/b&gt;&lt;/span&gt;&lt;br style=&quot;font-size: 21px&quot;&gt;&lt;i style=&quot;font-size: 21px&quot;&gt;.json&lt;/i&gt;" style="shape=parallelogram;perimeter=parallelogramPerimeter;whiteSpace=wrap;html=1;fixedSize=1;fontSize=12;rounded=0;" vertex="1" parent="1">
                    <mxGeometry x="760" y="1400" width="280" height="120" as="geometry"/>
                </mxCell>
            </root>
        </mxGraphModel>
    </diagram>
</mxfile>